<svg width="22.204586" height="41.708298" viewBox="0 0 22.2046 41.7083" fill="none" xmlns="http://www.w3.org/2000/svg" xmlns:xlink="http://www.w3.org/1999/xlink">
	<desc>
			Created with Pixso.
	</desc>
	<defs/>
	<path id="Vector" d="M22.2 38.48L22.11 38.47L22.01 38.45L21.81 38.41L21.4 38.32C21.12 38.26 20.85 38.19 20.57 38.13C20.02 37.99 19.47 37.85 18.92 37.7C17.83 37.39 16.74 37.04 15.66 36.66C14.59 36.28 13.53 35.85 12.49 35.39C11.45 34.92 10.43 34.41 9.45 33.85C8.47 33.29 7.53 32.67 6.62 31.98C5.73 31.31 4.9 30.55 4.14 29.71C3.39 28.89 2.75 27.97 2.23 26.98C1.72 25.98 1.37 24.91 1.19 23.8C1.14 23.53 1.11 23.24 1.09 22.96C1.07 22.67 1.06 22.38 1.06 22.1C1.05 21.52 1.08 20.95 1.14 20.37C1.27 19.22 1.5 18.08 1.84 16.98C2.19 15.86 2.62 14.77 3.12 13.71C3.63 12.65 4.2 11.62 4.82 10.63C6.07 8.63 7.51 6.75 9.07 4.97C9.85 4.09 10.66 3.23 11.5 2.39C11.91 1.98 12.34 1.57 12.77 1.17C13.21 0.77 13.65 0.37 14.1 0C13.63 0.35 13.18 0.73 12.73 1.11C12.28 1.5 11.84 1.89 11.4 2.29C10.53 3.09 9.68 3.92 8.86 4.78C7.22 6.5 5.7 8.33 4.35 10.31C3.68 11.3 3.06 12.33 2.5 13.39C1.93 14.46 1.44 15.57 1.04 16.71C0.64 17.86 0.34 19.05 0.16 20.26C0.07 20.87 0.02 21.48 0 22.09C-0.01 22.4 -0.01 22.71 0 23.02C0.01 23.33 0.03 23.64 0.06 23.95C0.17 25.2 0.47 26.43 0.96 27.59C1.46 28.74 2.1 29.82 2.87 30.81C3.63 31.78 4.47 32.69 5.4 33.5C6.31 34.32 7.28 35.06 8.29 35.75C9.3 36.43 10.34 37.05 11.41 37.63C12.47 38.21 13.55 38.74 14.66 39.23C15.76 39.72 16.87 40.17 18.01 40.58C18.57 40.79 19.14 40.99 19.72 41.17C20.01 41.27 20.3 41.36 20.59 41.45L21.03 41.57L21.25 41.64L21.37 41.67L21.49 41.7L22.2 38.48Z" fill="#F5F5F7" fill-opacity="1.000000" fill-rule="nonzero"/>
</svg>
